<svg width="1440" height="567" viewBox="0 0 1440 567" fill="none" xmlns="http://www.w3.org/2000/svg">
<path d="M-57 566C39.7347 357 125.98 182.5 225.629 168.5C325.277 154.5 366.069 285 434.832 285C503.595 285 536.811 225 558.956 168.5C581.1 112 625.388 1 708.719 1C792.051 1 832.843 119 853.822 168.5C874.8 218 930.743 321 1008.83 321C1086.92 321 1110.23 263.206 1184.23 270.5C1258.24 277.794 1284.47 366.5 1361.39 366.5C1438.31 366.5 1424.32 298.5 1496 298.5" stroke="url(#paint0_linear_17_1749)" stroke-width="2" stroke-linecap="round" stroke-linejoin="round"/>
<defs>
<linearGradient id="paint0_linear_17_1749" x1="-57" y1="566" x2="1496" y2="566" gradientUnits="userSpaceOnUse">
<stop stop-color="#FF59F8"/>
<stop offset="0.197917" stop-color="#AE72FF"/>
<stop offset="0.40625" stop-color="#90E9ED"/>
<stop offset="0.619792" stop-color="#5CD167"/>
<stop offset="0.825321" stop-color="#FFEE00"/>
</linearGradient>
</defs>
</svg>
