<svg width="500" height="487" viewBox="0 0 500 487" fill="none" xmlns="http://www.w3.org/2000/svg">
<path d="M449.901 398.494H416.779V398.744H449.901V398.494Z" fill="#EBEBEB"/>
<path d="M331.22 401.208H322.527V401.458H331.22V401.208Z" fill="#EBEBEB"/>
<path d="M415.778 389.208H396.586V389.458H415.778V389.208Z" fill="#EBEBEB"/>
<path d="M95.652 390.888H52.459V391.138H95.652V390.888Z" fill="#EBEBEB"/>
<path d="M110.889 390.888H104.556V391.138H110.889V390.888Z" fill="#EBEBEB"/>
<path d="M225.147 395.111H131.471V395.361H225.147V395.111Z" fill="#EBEBEB"/>
<path d="M238.401 337.8H45.302C42.155 337.8 39.594 335.239 39.594 332.092V60.66C39.594 57.513 42.155 54.952 45.302 54.952H238.401C241.547 54.952 244.108 57.513 244.108 60.66V332.092C244.108 335.239 241.547 337.8 238.401 337.8ZM45.302 55.203C42.292 55.203 39.844 57.651 39.844 60.661V332.093C39.844 335.103 42.292 337.551 45.302 337.551H238.401C241.41 337.551 243.858 335.103 243.858 332.093V60.66C243.858 57.651 241.41 55.202 238.401 55.202L45.302 55.203Z" fill="#EBEBEB"/>
<path d="M454.698 337.8H261.599C258.453 337.8 255.892 335.239 255.892 332.092V60.66C255.892 57.513 258.453 54.952 261.599 54.952H454.698C457.846 54.952 460.406 57.513 460.406 60.66V332.092C460.406 335.239 457.845 337.8 454.698 337.8ZM261.599 55.203C258.59 55.203 256.142 57.651 256.142 60.661V332.093C256.142 335.103 258.59 337.551 261.599 337.551H454.698C457.708 337.551 460.156 335.103 460.156 332.093V60.66C460.156 57.651 457.708 55.202 454.698 55.202L261.599 55.203Z" fill="#EBEBEB"/>
<path d="M500 382.398H0V382.648H500V382.398Z" fill="#EBEBEB"/>
<path d="M187.445 382.291H181.98V296.832H190.547L187.445 382.291Z" fill="#F0F0F0"/>
<path d="M181.98 318.231C182.316 318.196 182.653 318.172 182.993 318.172C185.352 318.172 187.558 318.957 189.703 320.058L190.546 296.832H181.98V318.231Z" fill="#E0E0E0"/>
<path d="M165.716 382.291H160.251V296.832H168.817L165.716 382.291Z" fill="#F0F0F0"/>
<path d="M160.251 327.486C162.806 327.894 165.29 326.97 167.774 325.567L168.817 296.833H160.251V327.486Z" fill="#E0E0E0"/>
<path d="M316.755 382.291H322.22V296.832H313.653L316.755 382.291Z" fill="#F0F0F0"/>
<path d="M322.22 318.231C321.884 318.196 321.547 318.172 321.207 318.172C318.848 318.172 316.642 318.957 314.497 320.058L313.654 296.832H322.22V318.231Z" fill="#E0E0E0"/>
<path d="M338.484 382.291H343.949V296.832H335.383L338.484 382.291Z" fill="#F0F0F0"/>
<path d="M343.949 327.486C341.394 327.894 338.91 326.97 336.426 325.567L335.383 296.833H343.949V327.486Z" fill="#E0E0E0"/>
<path d="M342.196 280.128C358.1 286.04 362.436 311.421 342.196 314.654C334.606 315.866 327.639 305.34 319.453 305.34C311.267 305.34 304.896 314.654 296.71 314.654C288.524 314.654 282.153 305.34 273.967 305.34C265.781 305.34 259.41 314.654 251.224 314.654C243.038 314.654 236.666 305.34 228.481 305.34C220.295 305.34 213.924 314.654 205.738 314.654C197.552 314.654 191.181 305.34 182.995 305.34C174.809 305.34 167.841 315.866 160.252 314.654C140.012 311.421 143.01 285.421 160.252 280.128H342.196Z" fill="#F0F0F0"/>
<path d="M295.465 243.587V232.215C295.465 231.336 294.752 230.623 293.873 230.623H292.324C291.445 230.623 290.732 231.336 290.732 232.215V243.587L288.693 246.985C287.603 248.801 287.028 250.878 287.028 252.996V278.442C287.028 279.591 287.96 280.523 289.109 280.523H297.087C298.236 280.523 299.168 279.591 299.168 278.442V252.996C299.168 250.878 298.592 248.801 297.503 246.985L295.465 243.587Z" fill="#E0E0E0"/>
<path d="M290.866 262.93C290.866 271.965 291.037 279.289 290.416 279.289C289.795 279.289 289.292 271.965 289.292 262.93C289.292 253.895 290.47 246.571 291.091 246.571C291.711 246.571 290.866 253.895 290.866 262.93Z" fill="#F5F5F5"/>
<path d="M292.481 238.031C292.481 241.213 292.159 243.793 291.761 243.793C291.363 243.793 291.658 241.214 291.658 238.031C291.658 234.849 291.98 232.269 292.378 232.269C292.776 232.269 292.481 234.849 292.481 238.031Z" fill="#F5F5F5"/>
<path d="M227.776 247.789V237.711C227.776 236.932 227.144 236.3 226.365 236.3H224.992C224.213 236.3 223.581 236.932 223.581 237.711V247.789L221.774 250.801C220.809 252.41 220.299 254.252 220.299 256.128V278.679C220.299 279.698 221.125 280.524 222.143 280.524H229.213C230.232 280.524 231.057 279.698 231.057 278.679V256.128C231.057 254.251 230.547 252.41 229.582 250.801L227.776 247.789Z" fill="#E0E0E0"/>
<path d="M223.7 264.931C223.7 272.938 223.852 279.429 223.301 279.429C222.751 279.429 222.305 272.938 222.305 264.931C222.305 256.924 223.349 250.433 223.899 250.433C224.45 250.433 223.7 256.924 223.7 264.931Z" fill="#F5F5F5"/>
<path d="M225.132 242.865C225.132 245.685 224.846 247.971 224.493 247.971C224.141 247.971 224.402 245.685 224.402 242.865C224.402 240.045 224.688 237.759 225.04 237.759C225.393 237.759 225.132 240.045 225.132 242.865Z" fill="#F5F5F5"/>
<path d="M212.658 239.296V226.603C212.658 225.622 211.862 224.826 210.881 224.826H209.152C208.171 224.826 207.375 225.622 207.375 226.603V239.296L205.099 243.089C203.883 245.116 203.241 247.435 203.241 249.798V278.2C203.241 279.483 204.281 280.523 205.564 280.523H214.469C215.752 280.523 216.792 279.483 216.792 278.2V249.798C216.792 247.434 216.15 245.116 214.934 243.089L212.658 239.296Z" fill="#E0E0E0"/>
<path d="M207.524 260.885C207.524 270.969 207.715 279.144 207.022 279.144C206.329 279.144 205.767 270.969 205.767 260.885C205.767 250.801 207.082 242.626 207.775 242.626C208.468 242.626 207.524 250.801 207.524 260.885Z" fill="#F5F5F5"/>
<path d="M209.327 233.094C209.327 236.646 208.967 239.525 208.523 239.525C208.079 239.525 208.408 236.646 208.408 233.094C208.408 229.542 208.768 226.663 209.212 226.663C209.656 226.663 209.327 229.543 209.327 233.094Z" fill="#F5F5F5"/>
<path d="M309.835 275.81V266.116C309.835 265.225 310.384 264.403 311.231 264.126C314.365 263.103 316.642 260.023 316.642 256.38C316.642 254.267 315.871 252.35 314.617 250.907H303.294C302.04 252.35 301.269 254.268 301.269 256.38C301.269 260.024 303.546 263.103 306.68 264.126C307.527 264.403 308.076 265.225 308.076 266.116V275.81C308.076 276.84 307.333 277.726 306.318 277.894C304.572 278.182 303.385 278.747 303.385 279.399C303.385 280.344 305.879 280.523 308.956 280.523C312.033 280.523 314.527 280.344 314.527 279.399C314.527 278.748 313.34 278.183 311.594 277.894C310.577 277.726 309.835 276.84 309.835 275.81Z" fill="#F5F5F5"/>
<path d="M302.887 255.688C302.864 255.918 302.834 256.148 302.834 256.382C302.834 259.279 304.574 261.793 307.165 262.639C307.903 262.881 308.521 263.349 308.954 263.955C309.388 263.348 310.005 262.88 310.743 262.639C313.334 261.793 315.074 259.279 315.074 256.382C315.074 256.148 315.045 255.919 315.022 255.688H302.887Z" fill="#E0E0E0"/>
<path d="M192.304 275.81V266.116C192.304 265.225 192.853 264.403 193.7 264.126C196.834 263.103 199.111 260.023 199.111 256.38C199.111 254.267 198.34 252.35 197.086 250.907H185.762C184.508 252.35 183.737 254.268 183.737 256.38C183.737 260.024 186.014 263.103 189.148 264.126C189.995 264.403 190.544 265.225 190.544 266.116V275.81C190.544 276.84 189.801 277.726 188.786 277.894C187.04 278.182 185.853 278.747 185.853 279.399C185.853 280.344 188.347 280.523 191.424 280.523C194.501 280.523 196.995 280.344 196.995 279.399C196.995 278.748 195.808 278.183 194.062 277.894C193.047 277.726 192.304 276.84 192.304 275.81Z" fill="#EBEBEB"/>
<path d="M97.5131 263.393C100.574 281.411 102.6 299.335 103.658 317.586C104.803 317.492 105.375 317.444 106.519 317.347C105.447 298.973 103.403 280.927 100.317 262.787C98.5971 251.136 86.9631 242.037 75.7921 242.799C70.5541 243.156 65.9021 245.925 62.9561 250.03C59.9621 254.201 58.9481 259.384 60.0241 264.831C63.0431 281.184 65.1161 297.464 66.3091 314.055C67.4521 313.979 68.0231 313.94 69.1651 313.862C67.9611 297.147 65.8721 280.747 62.8301 264.272C61.9111 259.625 62.7571 255.23 65.2681 251.748C65.6131 251.269 65.9911 250.823 66.3861 250.396C71.0901 271.822 74.1221 293.054 75.6461 314.937C76.7891 314.856 77.3601 314.816 78.5041 314.732C76.9661 292.244 73.7861 270.293 68.8341 248.303C70.5891 247.117 72.6291 246.314 74.8711 245.954C80.1261 269.081 83.4531 292.154 84.9941 315.82C86.1381 315.735 86.7091 315.692 87.8531 315.604C86.3101 291.941 82.9941 268.863 77.7641 245.733C80.1331 245.764 82.4841 246.288 84.7031 247.231C89.7241 270.241 92.8901 293.196 94.3311 316.703C95.4751 316.614 96.0471 316.568 97.1911 316.476C95.7981 293.68 92.7921 271.384 88.0561 249.041C92.7611 252.18 96.4131 257.376 97.5131 263.393Z" fill="#E0E0E0"/>
<path d="M132.061 315.526H66.249V315.12C66.249 311.481 69.199 308.532 72.837 308.532H125.472C129.111 308.532 132.061 311.482 132.061 315.121V315.526Z" fill="#F0F0F0"/>
<path d="M68.4791 382.291H64.9811L67.8431 315.526H72.2941L68.4791 382.291Z" fill="#E0E0E0"/>
<path d="M91.846 382.291H88.349L90.257 315.526H94.708L91.846 382.291Z" fill="#E0E0E0"/>
<path d="M109.968 382.291H106.471L103.61 315.526H108.061L109.968 382.291Z" fill="#E0E0E0"/>
<path d="M133.337 382.291H129.839L126.024 315.526H130.475L133.337 382.291Z" fill="#E0E0E0"/>
<path d="M134.93 312.982H95.8241V318.069H134.93V312.982Z" fill="#EBEBEB"/>
<path d="M95.824 312.982H63.38V318.069H95.824V312.982Z" fill="#F5F5F5"/>
<path d="M402.487 263.393C399.426 281.411 397.4 299.335 396.342 317.586C395.197 317.492 394.625 317.444 393.481 317.347C394.552 298.973 396.597 280.927 399.683 262.787C401.403 251.136 413.037 242.037 424.209 242.799C429.447 243.156 434.099 245.925 437.045 250.03C440.039 254.201 441.054 259.384 439.977 264.831C436.958 281.184 434.885 297.464 433.692 314.055C432.549 313.979 431.978 313.94 430.835 313.862C432.039 297.147 434.128 280.747 437.17 264.272C438.089 259.625 437.243 255.23 434.732 251.748C434.387 251.269 434.009 250.823 433.614 250.396C428.91 271.822 425.878 293.054 424.354 314.937C423.211 314.856 422.639 314.816 421.496 314.732C423.034 292.244 426.214 270.293 431.166 248.303C429.411 247.117 427.371 246.314 425.129 245.954C419.874 269.081 416.547 292.154 415.006 315.82C413.863 315.735 413.291 315.692 412.147 315.604C413.69 291.941 417.006 268.863 422.236 245.733C419.866 245.764 417.515 246.288 415.296 247.231C410.275 270.241 407.109 293.196 405.668 316.703C404.524 316.614 403.952 316.568 402.808 316.476C404.201 293.68 407.207 271.384 411.943 249.041C407.239 252.18 403.587 257.376 402.487 263.393Z" fill="#E0E0E0"/>
<path d="M367.939 315.526H433.751V315.12C433.751 311.481 430.801 308.532 427.162 308.532H374.527C370.888 308.532 367.939 311.482 367.939 315.12V315.526Z" fill="#F0F0F0"/>
<path d="M431.522 382.291H435.019L432.157 315.526H427.706L431.522 382.291Z" fill="#E0E0E0"/>
<path d="M408.153 382.291H411.651L409.743 315.526H405.292L408.153 382.291Z" fill="#E0E0E0"/>
<path d="M390.031 382.291H393.529L396.39 315.526H391.939L390.031 382.291Z" fill="#E0E0E0"/>
<path d="M366.663 382.291H370.161L373.976 315.526H369.525L366.663 382.291Z" fill="#E0E0E0"/>
<path d="M365.07 318.07H404.176V312.983H365.07V318.07Z" fill="#EBEBEB"/>
<path d="M404.175 318.07H436.619V312.983H404.175V318.07Z" fill="#F5F5F5"/>
<path d="M147.739 139.941C147.739 139.941 160.265 122.958 177.251 122.958C194.236 122.958 205.17 139.941 205.17 139.941V230.803H147.739V139.941Z" fill="#F5F5F5"/>
<path d="M203.728 140.591C196.404 130.708 186.778 125.277 176.552 125.277C166.326 125.277 156.7 130.708 149.376 140.591V229.076H203.728V140.591ZM202.029 226.714H151.074V141.604C158.008 132.591 167.027 127.64 176.551 127.64C186.076 127.64 195.094 132.591 202.029 141.604V226.714Z" fill="#E0E0E0"/>
<path d="M206.7 233.211H146.403V138.869L146.838 138.263C154.775 127.222 165.327 121.141 176.551 121.141C187.775 121.141 198.327 127.222 206.264 138.263L206.699 138.869L206.7 233.211ZM149.376 229.076H203.728V140.591C196.404 130.708 186.778 125.277 176.552 125.277C166.326 125.277 156.7 130.708 149.376 140.591V229.076Z" fill="#EBEBEB"/>
<path d="M187.592 228.012V187.119H203.091V182.984H187.592V142.295H203.091V140.968C202.35 139.982 201.58 139.054 200.794 138.16H187.592V128.401C186.614 127.995 185.622 127.652 184.62 127.355V138.16H168.484V127.355C167.482 127.652 166.489 127.995 165.512 128.401V138.16H152.31C151.524 139.053 150.753 139.982 150.013 140.968V142.295H165.512V182.984H150.013V187.119H165.512V228.012H168.484V187.119H184.62V228.012H187.592ZM184.62 182.984H168.484V142.295H184.62V182.984Z" fill="#E6E6E6"/>
<path d="M297.321 139.941C297.321 139.941 309.847 122.958 326.832 122.958C343.817 122.958 354.751 139.941 354.751 139.941V230.803H297.32V139.941H297.321Z" fill="#F5F5F5"/>
<path d="M353.31 140.591C345.986 130.708 336.36 125.277 326.134 125.277C315.907 125.277 306.281 130.708 298.958 140.591V229.076H353.31V140.591ZM351.612 226.714H300.657V141.604C307.591 132.591 316.61 127.64 326.135 127.64C335.66 127.64 344.678 132.591 351.613 141.604V226.714H351.612Z" fill="#E0E0E0"/>
<path d="M356.282 233.211H295.985V138.869L296.42 138.263C304.357 127.222 314.909 121.141 326.133 121.141C337.357 121.141 347.909 127.222 355.846 138.263L356.281 138.869V233.211H356.282ZM298.958 229.076H353.31V140.591C345.986 130.708 336.36 125.277 326.134 125.277C315.907 125.277 306.281 130.708 298.958 140.591V229.076Z" fill="#EBEBEB"/>
<path d="M337.174 228.012V187.119H352.673V182.984H337.174V142.295H352.673V140.968C351.932 139.982 351.162 139.054 350.376 138.16H337.174V128.401C336.196 127.995 335.204 127.652 334.202 127.355V138.16H318.066V127.355C317.064 127.652 316.071 127.995 315.094 128.401V138.16H301.892C301.106 139.053 300.336 139.982 299.595 140.968V142.295H315.094V182.984H299.595V187.119H315.094V228.012H318.066V187.119H334.202V228.012H337.174ZM334.202 182.984H318.066V142.295H334.202V182.984Z" fill="#E6E6E6"/>
<path d="M210.792 298.178C210.792 298.178 219.94 303.138 231.525 293.515V281.396L209.634 281.158L210.763 297.524L210.792 298.178Z" fill="#F0F0F0"/>
<path d="M251.901 422.288C358.983 422.288 445.79 417.218 445.79 410.965C445.79 404.711 358.983 399.642 251.901 399.642C144.819 399.642 58.012 404.711 58.012 410.965C58.012 417.218 144.819 422.288 251.901 422.288Z" fill="#F5F5F5"/>
<path d="M122.366 175.542L107.723 177.744L99.232 156.059C98.875 154.799 97.35 156.622 96.057 156.41L93.845 156.046C93.632 155.642 97.932 174.635 100.776 185.812C101.938 190.38 125.329 185.441 125.329 185.441C134.433 181.337 122.366 175.542 122.366 175.542Z" fill="#FFB573"/>
<path d="M113.653 174.965C113.817 177.661 115.328 184.12 117.566 188.656C117.809 189.149 118.324 189.448 118.873 189.415C126.322 188.957 129.594 187.177 129.594 187.177C128.923 184.938 131.903 172.63 130.364 171.015C130.364 171.015 126.16 171.776 124.237 172.775C122.542 173.656 113.653 174.965 113.653 174.965Z" fill="#407BFF"/>
<path d="M127.45 188.369C127.543 209.015 125.721 226.734 125.721 226.734C125.721 226.734 161.468 226.88 162.68 226.912C165.56 202.999 167.631 196.873 168.377 182.33C168.754 176.299 165.331 170.994 161.89 170.304L161.245 170.218C151.219 168.885 140.424 169.957 130.365 171.016C126.514 171.577 127.822 178.673 127.45 188.369Z" fill="#407BFF"/>
<path d="M142.758 329.978C139.785 357.417 142.197 406.563 142.197 406.563L148.484 406.727C148.484 406.727 153.268 361.214 153.51 328.463L142.758 329.978Z" fill="#FFB573"/>
<path d="M142.758 329.978C139.785 357.417 142.197 406.563 142.197 406.563L148.484 406.727C148.484 406.727 153.268 361.214 153.51 328.463L142.758 329.978Z" fill="#FFB573"/>
<path d="M150.887 403.579C155.538 406.232 156.057 406.287 161.179 407.339C162.304 407.569 161.882 410.244 159.271 410.267C154.956 410.34 155.324 410.186 151.635 410.226C148.492 410.261 143.943 410.437 141.444 410.505C141.416 410.505 141.388 410.504 141.36 410.502C140.786 410.458 140.342 409.955 140.368 409.379L140.834 403.622C140.858 403.366 141.067 403.173 141.322 403.173L149.282 403.111C149.846 403.117 150.401 403.278 150.887 403.579Z" fill="#263238"/>
<path d="M150.472 403.682C151.508 403.883 153.353 404.119 154.039 403.476C154.245 403.287 154.346 403.006 154.308 402.724C154.294 402.552 154.194 402.398 154.044 402.315C153.251 401.895 150.705 403.232 150.425 403.389C150.369 403.419 150.337 403.482 150.345 403.547C150.353 403.605 150.395 403.653 150.451 403.668L150.472 403.682ZM153.904 402.586C153.963 402.617 154.001 402.678 154.002 402.745C154.035 402.931 153.969 403.12 153.828 403.242C153.445 403.601 152.39 403.678 150.967 403.452C151.973 402.952 153.359 402.394 153.844 402.556L153.904 402.586Z" fill="#407BFF"/>
<path d="M150.561 403.683C151.322 403.318 152.825 401.915 152.683 401.158C152.651 400.984 152.522 400.771 152.104 400.73C151.797 400.702 151.494 400.801 151.264 401.006C150.468 401.698 150.342 403.456 150.343 403.523C150.338 403.58 150.364 403.635 150.412 403.667H150.449C150.483 403.687 150.523 403.693 150.561 403.683ZM152.242 401.079C152.369 401.118 152.378 401.193 152.385 401.224C152.464 401.671 151.457 402.783 150.674 403.277C150.727 402.535 151.004 401.83 151.468 401.257C151.635 401.104 151.859 401.032 152.085 401.056L152.241 401.057L152.242 401.079Z" fill="#407BFF"/>
<path d="M120.051 331.611C116.151 358.934 101.668 405.959 101.668 405.959L94.79 405.821C94.79 405.821 101.402 360.537 109.261 328.742L120.051 331.611Z" fill="#FFB573"/>
<path d="M92.977 403.291C88.133 406.054 87.592 406.112 82.257 407.208C81.085 407.447 81.525 410.234 84.245 410.258C88.739 410.334 88.356 410.174 92.198 410.215C95.471 410.251 100.21 410.434 102.813 410.505C102.842 410.505 102.871 410.504 102.9 410.502C103.498 410.456 103.96 409.933 103.933 409.332L103.447 403.336C103.422 403.069 103.204 402.868 102.939 402.868L94.648 402.804C94.061 402.809 93.482 402.978 92.977 403.291Z" fill="#263238"/>
<path d="M93.432 403.383C93.49 403.367 93.534 403.317 93.542 403.257C93.551 403.189 93.518 403.124 93.459 403.093C93.167 402.93 90.515 401.538 89.689 401.975C89.532 402.061 89.428 402.222 89.414 402.401C89.374 402.695 89.479 402.988 89.694 403.185C90.408 403.855 92.33 403.609 93.409 403.4L93.432 403.383ZM89.896 402.224C90.402 402.056 91.845 402.637 92.893 403.158C91.411 403.394 90.312 403.313 89.913 402.939C89.766 402.812 89.697 402.616 89.732 402.422C89.734 402.352 89.773 402.288 89.834 402.257L89.896 402.224Z" fill="#407BFF"/>
<path d="M93.432 403.383H93.471C93.521 403.35 93.548 403.293 93.543 403.233C93.544 403.163 93.413 401.331 92.583 400.611C92.344 400.398 92.028 400.294 91.708 400.324C91.272 400.366 91.138 400.588 91.105 400.769C90.957 401.558 92.523 403.019 93.315 403.399C93.355 403.41 93.397 403.404 93.432 403.383ZM91.565 400.664L91.728 400.663C91.963 400.637 92.196 400.714 92.37 400.872C92.853 401.468 93.142 402.203 93.197 402.976C92.382 402.462 91.332 401.304 91.415 400.838C91.423 400.806 91.432 400.727 91.564 400.687L91.565 400.664Z" fill="#407BFF"/>
<path d="M140.244 273.475C137.132 279.1 121.133 335.102 121.133 335.102L114.141 367.605C113.105 372.422 112.361 377.185 111.908 381.868L110.507 392.259L94.356 392.459C94.693 391.048 97.702 376.698 104.753 331.574C112.009 285.141 125.429 226.886 125.429 226.886C125.429 226.886 146.006 226.086 154.866 227.455C157.335 240.016 146.951 261.399 140.244 273.475Z" fill="#263238"/>
<path opacity="0.2" d="M135.708 257.148C135.708 257.148 130.433 289.013 132.016 298.289L143.4 261.673L135.708 257.148Z" fill="black"/>
<path d="M152.901 392.46C153.274 391.901 155.415 346.232 156.237 333.294L162.444 261.484C162.444 261.484 165.944 237.586 162.68 226.913L132.614 226.703C132.614 226.703 140.691 314.625 138.856 358.949C138.171 375.494 137.798 392.474 137.798 392.474L152.901 392.46Z" fill="#263238"/>
<path d="M151.458 170.093C153.706 171.695 152.751 174.215 150.918 176.273C147.1 180.559 143.142 181.89 143.142 181.89C143.083 181.866 133.225 174.742 140.191 170.284C141.344 169.54 141.793 167.793 141.919 165.965C142.019 164.435 141.896 162.864 141.751 161.782C141.716 161.43 141.663 161.089 141.601 160.768C141.548 160.427 141.477 160.116 141.398 159.816L151.852 155.502C150.703 157.232 149.828 162.775 150.072 164.558C150.341 166.559 150.418 169.352 151.458 170.093Z" fill="#FFB573"/>
<path opacity="0.2" d="M141.953 165.917C142.053 164.387 141.93 162.816 141.785 161.735C141.75 161.383 141.697 161.042 141.635 160.721L149.721 159.17C148.024 160.864 145.648 164.301 141.953 165.917Z" fill="black"/>
<path d="M133.061 155.725C134.36 162.801 142.829 166.532 148.421 161.462C151.65 158.543 152.164 155.059 152.753 149.627C152.847 148.803 152.938 147.937 153.044 147.014C153.216 145.579 153.068 144.126 152.612 142.761C152.421 142.179 152.175 141.633 151.881 141.121C149.665 137.138 144.869 135.175 140.394 136.683C133.383 139.046 131.885 149.358 133.061 155.725Z" fill="#FFB573"/>
<path d="M141.807 147.224C141.437 147.2 141.113 147.649 141.081 148.217C141.049 148.784 141.276 149.266 141.696 149.288C142.115 149.31 142.44 148.869 142.471 148.293C142.493 147.693 142.177 147.248 141.807 147.224Z" fill="#263238"/>
<path d="M135.458 147.167C135.088 147.143 134.764 147.584 134.732 148.151C134.7 148.718 134.968 149.198 135.347 149.222C135.725 149.246 136.05 148.805 136.081 148.237C136.104 147.671 135.828 147.191 135.458 147.167Z" fill="#263238"/>
<path d="M138.131 153.833C137.161 153.931 135.415 153.348 134.72 152.665C136.042 151.354 137.52 149.881 138.429 148.256L138.131 153.833Z" fill="#ED893E"/>
<path d="M143.969 146.664C143.468 145.967 142.666 145.55 141.808 145.541C141.774 145.55 141.739 145.554 141.704 145.552C141.519 145.542 141.376 145.385 141.386 145.199C141.396 145.014 141.553 144.871 141.739 144.881C142.815 144.867 143.831 145.374 144.469 146.241C144.581 146.387 144.555 146.595 144.411 146.708C144.366 146.745 144.311 146.768 144.253 146.774C144.145 146.784 144.041 146.743 143.969 146.664Z" fill="#263238"/>
<path d="M133.142 144.313C133.142 144.311 133.142 144.31 133.142 144.308C133.143 144.123 133.294 143.973 133.48 143.974C134.555 143.947 135.575 144.449 136.209 145.317C136.211 145.32 136.213 145.323 136.215 145.326C136.312 145.479 136.266 145.681 136.114 145.778C136.107 145.783 136.099 145.788 136.091 145.793C135.939 145.883 135.743 145.834 135.653 145.682C135.137 145.006 134.327 144.62 133.477 144.643C133.365 144.646 133.259 144.592 133.196 144.499C133.162 144.443 133.143 144.379 133.142 144.313Z" fill="#263238"/>
<path d="M148.385 142.38C148.776 143.8 148.919 145.288 148.805 146.756C150.572 148.978 151.206 151.75 150.688 154.541C151.708 152.821 153.406 151.506 155.31 150.897C155.922 148.312 156.169 145.557 156.109 142.901C156.086 141.867 156.003 140.801 155.532 139.881C155.061 138.96 154.113 138.214 153.081 138.272C153.202 137.195 152.199 136.314 151.276 135.746C145.884 132.429 138.536 132.631 133.333 136.239C132.507 136.239 131.648 136.196 130.822 136.196C130.936 137.897 132.244 139.79 133.648 140.758C133.959 140.973 134.303 141.388 134.539 141.683C136.343 142.295 138.303 142.209 140.18 141.88C142.056 141.551 143.906 141.034 145.806 140.897C146.81 140.825 148.117 141.409 148.385 142.38Z" fill="#263238"/>
<path d="M153.297 149.208C151.01 149.258 149.614 152.141 149.373 154.114C149.087 156.309 150.561 158.115 152.681 157.144C154.277 156.402 155.508 155.05 156.096 153.391C156.802 151.35 155.584 149.158 153.297 149.208Z" fill="#FFB573"/>
<path d="M136.327 155.777C136.327 155.777 138.288 154.981 144.063 154.292C143.734 156.39 142.469 157.275 139.504 157.594C136.54 157.914 136.327 155.777 136.327 155.777Z" fill="#263238"/>
<path d="M136.585 155.702C136.764 156.17 137.176 156.509 137.67 156.593C139.376 156.387 141.057 156.014 142.689 155.478C143.253 155.35 143.692 154.908 143.817 154.344C141.37 154.575 138.949 155.03 136.585 155.702Z" fill="white"/>
<path d="M137.788 156.419C139.243 155.832 140.781 155.472 142.346 155.353C142.786 155.4 143.204 155.566 143.556 155.835C142.923 156.874 141.645 157.39 139.523 157.626C138.73 157.765 137.914 157.616 137.222 157.206C137.374 156.92 137.565 156.655 137.788 156.419Z" fill="white"/>
<path d="M95.659 153.559C95.659 153.559 93.726 148.735 95.166 147.851C96.607 146.967 96.269 148.191 96.269 148.191L98.724 154.162L95.659 153.559Z" fill="#FFB573"/>
<path d="M91.67 158.327C90.403 158.051 90.34 157.072 89.757 155.914C89.757 155.914 88.127 151.315 89.72 150.768C89.72 150.768 92.033 150.658 94.595 150.942C97.486 151.263 98.722 153.655 99.079 155.324C100.148 160.321 91.67 158.327 91.67 158.327Z" fill="#FFB573"/>
<path opacity="0.2" d="M160.173 178.042L165.766 203.958L170.288 179.067L160.173 178.042Z" fill="black"/>
<path d="M171.915 179.19C172.752 181.439 173.538 183.705 174.301 185.979C175.063 188.253 175.793 190.539 176.498 192.834C177.214 195.125 177.891 197.43 178.568 199.736C178.911 200.818 179.578 202.886 179.465 205.123C179.423 206.238 179.2 207.283 178.942 208.124C178.683 208.977 178.396 209.678 178.12 210.32L177.921 210.782L177.903 210.813C175.643 214.696 173.35 218.563 171.009 222.405C169.837 224.325 168.701 226.264 167.494 228.166C166.297 230.074 165.12 231.991 163.888 233.881C163.009 235.23 161.204 235.611 159.855 234.732C158.688 233.972 158.246 232.516 158.718 231.264C159.512 229.152 160.361 227.068 161.189 224.974C162.007 222.874 162.897 220.811 163.75 218.73C165.459 214.568 167.218 210.432 169.009 206.311L168.792 206.803C168.938 206.318 169.048 205.88 169.093 205.568C169.142 205.246 169.119 205.094 169.084 205.003L168.913 204.552L168.428 203.379C167.544 201.128 166.661 198.877 165.816 196.611C164.961 194.349 164.13 192.078 163.332 189.796C162.534 187.513 161.759 185.223 161.036 182.915C160.086 179.884 161.774 176.656 164.806 175.707C167.733 174.79 170.851 176.35 171.915 179.19Z" fill="#FFB573"/>
<path d="M159.554 230.434L155.511 235.468C155.511 235.468 158.867 240.689 161.105 239.943C163.342 239.197 164.088 233.231 164.088 233.231L159.554 230.434Z" fill="#FFB573"/>
<path d="M163.063 170.677C163.063 170.677 155.734 171.881 161.328 186.424C165.688 197.761 166.023 196.128 166.023 196.128L177 189.695C177 189.695 173.014 170.117 163.063 170.677Z" fill="#407BFF"/>
<path d="M103.808 105.657H154.47C155.828 105.657 156.938 106.766 156.938 108.122L156.936 121.81C156.936 123.164 155.826 124.272 154.47 124.272H136.731L133.646 129.355C132.859 130.651 131.018 130.723 130.265 129.487L127.091 124.272H103.801C102.445 124.272 101.336 123.164 101.336 121.811L101.338 108.122C101.339 106.766 102.451 105.657 103.808 105.657Z" fill="#407BFF"/>
<g opacity="0.7">
<path d="M103.808 105.657H154.47C155.828 105.657 156.938 106.766 156.938 108.122L156.936 121.81C156.936 123.164 155.826 124.272 154.47 124.272H136.731L133.646 129.355C132.859 130.651 131.018 130.723 130.265 129.487L127.091 124.272H103.801C102.445 124.272 101.336 123.164 101.336 121.811L101.338 108.122C101.339 106.766 102.451 105.657 103.808 105.657Z" fill="white"/>
</g>
<path d="M112.234 110.868L113.407 113.244L116.03 113.625L114.132 115.475L114.58 118.087L112.234 116.854L109.889 118.087L110.337 115.475L108.439 113.625L111.062 113.244L112.234 110.868Z" fill="#407BFF"/>
<path d="M121.052 110.868L122.225 113.244L124.847 113.625L122.95 115.475L123.398 118.087L121.052 116.854L118.706 118.087L119.154 115.475L117.256 113.625L119.879 113.244L121.052 110.868Z" fill="#407BFF"/>
<path d="M129.869 110.868L131.042 113.244L133.665 113.625L131.767 115.475L132.215 118.087L129.869 116.854L127.524 118.087L127.972 115.475L126.074 113.625L128.697 113.244L129.869 110.868Z" fill="#407BFF"/>
<path d="M138.687 110.868L139.86 113.244L142.482 113.625L140.585 115.475L141.033 118.087L138.687 116.854L136.341 118.087L136.789 115.475L134.891 113.625L137.514 113.244L138.687 110.868Z" fill="#407BFF"/>
<path d="M147.504 110.868L148.677 113.244L151.3 113.625L149.402 115.475L149.85 118.087L147.504 116.854L145.158 118.087L145.607 115.475L143.709 113.625L146.331 113.244L147.504 110.868Z" fill="#407BFF"/>
<path d="M271.346 190.208C265.524 185.693 261.96 189.852 256.019 186.525C253.136 184.91 251.332 185.576 253.458 183.227C253.476 183.207 253.492 183.188 253.508 183.169C255.149 181.182 256.421 178.827 257.417 176.506C258.68 173.565 258.958 170.342 258.668 167.155C258.503 165.34 259.004 163.665 259.931 162.212C259.933 162.211 259.935 162.21 259.938 162.209C263.192 162.783 267.345 162.191 268.805 165.198C268.947 165.482 270.409 169.787 270.623 175.719C270.018 175.284 269.421 174.849 268.816 174.404C269.724 176.675 270.604 178.245 271.314 179.683C272.441 181.945 271.517 186.357 271.346 190.208Z" fill="#263238"/>
<path d="M250.595 195.773C253.261 193.128 252.573 180.88 252.573 180.88L260 186.244C260 186.244 260.236 193.812 262.002 195.323C262.415 195.676 263.049 195.405 263.556 195.454L263.041 197.362L261.563 199.712L259.579 201.036L256.713 200.955L254.16 200.146L251.277 198.009L248.935 196.009C249.492 195.927 250.21 196.155 250.595 195.773Z" fill="#EEC8C0"/>
<path opacity="0.1" d="M260.465 188.35C255.5 187.641 253.281 184.992 252.303 182.915L252.573 180.88L260.001 186.244L260.465 188.35Z" fill="black"/>
<path d="M269.007 177.785V177.908C269.007 178.334 268.988 178.76 268.96 179.157C268.932 179.554 268.875 179.942 268.799 180.311C267.91 184.474 264.116 186.962 260.076 186.593C260.048 186.593 260.029 186.593 260.01 186.583C258.42 186.432 256.812 185.845 255.327 184.757C254.608 184.237 254.012 183.707 253.51 183.167C253.169 182.798 252.876 182.429 252.611 182.032C252.554 181.947 252.507 181.871 252.45 181.786C252.27 181.502 252.11 181.218 251.958 180.916C251.882 180.765 251.807 180.613 251.74 180.452C251.731 180.433 251.721 180.414 251.712 180.386C251.665 180.273 251.617 180.159 251.57 180.045C251.068 178.806 250.69 177.348 250.274 175.541C250.236 175.399 250.198 175.248 250.16 175.096C250.151 175.039 250.141 174.982 250.132 174.926C249.99 174.311 249.848 173.649 249.687 172.949C249.375 171.615 249.375 170.215 249.687 168.871C250.236 166.544 251.655 164.651 253.519 163.459C254.9 162.57 256.537 162.059 258.24 162.049C258.798 162.049 259.366 162.096 259.934 162.21C260.066 162.229 260.199 162.257 260.331 162.286C263.378 162.977 265.535 165.304 266.935 168.19C267.077 168.474 267.209 168.767 267.323 169.061C267.37 169.156 267.408 169.26 267.455 169.364C267.89 170.452 268.222 171.597 268.477 172.751C268.496 172.827 268.506 172.902 268.525 172.978C268.686 173.763 268.809 174.549 268.875 175.315C268.969 176.167 269.016 177 269.007 177.785Z" fill="#EEC8C0"/>
<path d="M265.659 172.35C265.744 172.87 265.526 173.343 265.195 173.391C264.854 173.438 264.514 173.069 264.419 172.539C264.353 172.104 264.495 171.706 264.75 171.555L264.797 171.536L265.942 170.997C265.942 170.997 265.705 171.527 265.327 171.659C265.489 171.81 265.621 172.056 265.659 172.35Z" fill="#263238"/>
<path d="M264.042 173.547C264.898 174.517 265.882 175.366 266.968 176.069C266.584 176.617 265.981 176.973 265.316 177.044L264.042 173.547Z" fill="#ED893E"/>
<path d="M257.598 172.185C257.733 172.187 257.855 172.1 257.895 171.97C258.328 171.047 259.127 170.346 260.099 170.036C260.264 169.986 260.358 169.811 260.309 169.646C260.26 169.485 260.09 169.393 259.929 169.442C259.925 169.443 259.922 169.444 259.918 169.446C258.747 169.809 257.792 170.664 257.303 171.789C257.253 171.95 257.343 172.121 257.503 172.171C257.533 172.184 257.565 172.189 257.598 172.185Z" fill="#263238"/>
<path d="M267.369 169.058C267.482 169.057 267.586 168.997 267.644 168.9C267.728 168.751 267.678 168.562 267.531 168.475C266.674 167.935 265.604 167.858 264.679 168.268C264.531 168.336 264.465 168.511 264.533 168.66C264.536 168.667 264.54 168.675 264.544 168.682C264.619 168.833 264.802 168.894 264.953 168.819C264.955 168.818 264.957 168.817 264.957 168.817C265.69 168.523 266.519 168.595 267.19 169.013C267.243 169.045 267.306 169.061 267.369 169.058Z" fill="#263238"/>
<path d="M259.775 173.416C259.86 173.936 259.642 174.409 259.311 174.466C258.971 174.513 258.63 174.135 258.535 173.614C258.488 173.113 258.677 172.621 259.008 172.564H259.084L260.049 172.11C260.049 172.11 259.822 172.602 259.453 172.753C259.613 172.905 259.737 173.142 259.775 173.416Z" fill="#263238"/>
<path d="M242.164 214.564L238.038 224.483C236.83 227.389 238.14 231.73 239.444 234.758C242.386 241.592 246.957 252.373 246.957 252.373C246.139 254.852 241.864 254.264 241.864 254.264C241.864 254.264 234.144 242.366 230.921 230.718C228.785 223 234.192 205.636 238.936 199.23C240.383 197.276 245.016 194.068 245.016 194.068L244.11 215.652L242.164 214.564Z" fill="#EEC8C0"/>
<path d="M244.837 251.004L248 253.047C248.104 253.114 248.195 253.203 248.268 253.307L250.917 257.095C251.059 257.299 251.122 257.549 251.091 257.79L250.874 259.451C250.838 259.73 250.68 259.967 250.447 260.092L246.024 262.475C245.603 262.702 245.066 262.505 244.834 262.039L242.231 256.804C242.18 256.701 242.146 256.589 242.133 256.476L241.692 252.771C241.647 252.392 241.825 252.038 242.141 251.88L244.012 250.944C244.27 250.816 244.58 250.839 244.837 251.004Z" fill="#EEC8C0"/>
<path d="M270.237 249.444L242.364 243.824C242.364 243.824 246.588 236.86 240.706 210.615C238.019 198.627 242.856 192.261 252.242 191.456C252.677 191.409 253.112 191.39 253.557 191.371C257.36 191.238 262.186 194.285 265.175 196.565C265.194 196.574 265.203 196.593 265.222 196.603C266.149 197.596 267.039 198.666 268.098 199.82C276.821 209.291 269.139 217.229 269.858 240.465C269.849 240.673 269.849 240.881 269.839 241.089C269.688 246.057 270.237 249.444 270.237 249.444Z" fill="#EEC8C0"/>
<path d="M256.717 157.592C254.941 156.933 252.895 157.298 251.257 158.251C249.62 159.203 248.349 160.687 247.33 162.283C245.093 165.787 243.905 171.376 244.583 175.478C245.26 179.58 248.327 185.843 253.05 186.288C250.466 177.199 255.026 165.792 257.433 157.66C257.196 157.708 256.953 157.542 256.717 157.592Z" fill="#263238"/>
<path d="M248.737 178.152C249.323 179.233 250.312 180.039 251.489 180.396C253.061 180.845 253.864 179.444 253.441 177.944C253.049 176.598 251.766 174.742 250.183 174.922C249.037 175.089 248.244 176.154 248.411 177.299C248.456 177.604 248.567 177.895 248.737 178.152Z" fill="#EEC8C0"/>
<path d="M258.54 157.459C263.948 158.752 268.406 160.965 269.787 168.762C268.445 168.508 267.323 169.061 265.865 170.05C264.998 168.09 262.563 165.573 260.579 164.761C259.962 166.415 259.345 168.07 258.728 169.724C258.393 170.621 257.926 172.663 257.926 172.663C257.926 172.663 254.674 172.739 253.554 173.012C253.554 173.012 252.303 166.456 253.913 162.037C254.6 160.152 255.439 158.163 257.161 157.134L258.54 157.459Z" fill="#263238"/>
<path d="M269.858 240.466C269.858 240.665 269.867 240.873 269.877 241.071C269.868 241.081 269.849 241.081 269.839 241.09C262.138 244.506 247.785 240.305 242.827 238.848C242.865 238.016 242.874 237.069 242.865 236.019C244.965 235.007 247.775 234.297 249.138 233.635C254.134 231.203 258.429 227.324 261.258 222.528C265.203 215.839 267.389 206.709 265.175 199.263C264.182 195.933 260.511 193.823 257.473 192.687C256.385 192.271 252.657 191.93 252.241 191.457L252.232 191.448C252.232 191.174 252.204 190.152 252.611 190.237C259.934 191.817 262.716 193.917 265.223 196.604C266.15 197.597 269.569 202.141 270.628 203.295C279.351 212.765 269.139 217.229 269.858 240.466Z" fill="#263238"/>
<path opacity="0.3" d="M269.858 240.466C269.858 240.665 269.867 240.873 269.877 241.071C269.868 241.081 269.849 241.081 269.839 241.09C262.138 244.506 247.785 240.305 242.827 238.848C242.865 238.016 242.874 237.069 242.865 236.019C244.965 235.007 247.775 234.297 249.138 233.635C254.134 231.203 258.429 227.324 261.258 222.528C265.203 215.839 267.389 206.709 265.175 199.263C264.182 195.933 260.511 193.823 257.473 192.687C256.385 192.271 252.657 191.93 252.241 191.457L252.232 191.448C252.232 191.174 252.204 190.152 252.611 190.237C259.934 191.817 262.716 193.917 265.223 196.604C266.15 197.597 269.569 202.141 270.628 203.295C279.351 212.765 269.139 217.229 269.858 240.466Z" fill="white"/>
<path d="M252.117 287.772C252.117 287.772 250.991 291.329 249.231 296.751C249.222 296.789 249.203 296.827 249.203 296.864C247.945 300.715 246.393 305.502 244.699 310.602C241.444 320.451 239.681 328.198 236.767 336.042C233.385 345.169 213.673 379.63 208.492 388.056C207.383 389.86 206.347 391.703 205.383 393.589L204.362 395.585L199.262 392.141L200.416 389.426L200.426 389.398C200.946 388.026 218.467 342.231 221.835 329.619C226.376 312.608 228.766 284.415 234.5 266.051C235.03 264.329 235.607 262.683 236.222 261.093C236.222 261.093 253.782 275.805 254.775 277.035C255.759 278.263 252.117 287.772 252.117 287.772Z" fill="#EEC8C0"/>
<path opacity="0.1" d="M228.712 293.478C228.712 293.478 233.295 299.579 248.276 299.705L249.529 295.846L250.471 289.776L250.97 287.518C250.97 287.518 237.903 274.496 228.712 293.478Z" fill="black"/>
<path d="M205.688 394.515L199.464 390.826C197.676 393.176 194.523 396.716 194.523 396.716C194.151 397.171 194.187 397.871 194.602 398.278C194.655 398.33 194.714 398.376 194.776 398.415C197.182 399.808 199.373 400.944 202.337 402.739C205.837 404.854 204.718 404.776 208.802 407.324C211.264 408.857 213.272 406.044 212.297 405.257C207.818 401.689 205.733 396.011 205.688 394.515Z" fill="#263238"/>
<path d="M270.114 275.66C269.454 289.252 269.082 316.085 267.674 329.618C266.034 345.324 257.951 400.197 257.951 400.197L251.407 399.554C251.407 399.554 248.575 356.183 251.701 333.958C252.677 327.015 250.079 308.218 248.999 297.034C248.989 296.987 248.979 296.949 248.988 296.892C248.056 287.391 247.196 279.763 247.196 279.763C247.196 279.763 240.456 277.2 236.462 271.481C235.38 269.958 234.504 268.205 234.023 266.203C233.798 265.363 233.658 264.484 233.603 263.557C232.886 252.692 241.886 243.582 241.886 243.582L269.616 249.294C269.616 249.294 270.435 268.92 270.114 275.66Z" fill="#EEC8C0"/>
<path opacity="0.1" d="M248.221 290.888L249.248 299.301C248.488 301.008 264.37 301.097 269.592 295.398L269.613 294.874L269.057 285.676L248.221 290.888Z" fill="black"/>
<path d="M270.678 294.937C270.678 294.937 251.875 293.515 242.571 294.343C224.917 295.921 221.995 288.653 221.995 288.653C221.995 288.653 229.633 287.386 232.108 260.964C232.702 254.612 237.661 248.182 240.35 245.113C241.607 243.184 242.435 241.002 242.776 238.722L269.802 240.339L269.977 247.149C269.977 247.149 270.98 257.359 271.068 259.951C271.39 269.372 270.678 294.937 270.678 294.937Z" fill="#263238"/>
<path opacity="0.3" d="M270.678 294.937C270.678 294.937 251.875 293.515 242.571 294.343C224.917 295.921 221.995 288.653 221.995 288.653C221.995 288.653 229.633 287.386 232.108 260.964C232.702 254.612 237.661 248.182 240.35 245.113C241.607 243.184 242.435 241.002 242.776 238.722L269.802 240.339L269.977 247.149C269.977 247.149 270.98 257.359 271.068 259.951C271.39 269.372 270.678 294.937 270.678 294.937Z" fill="white"/>
<path d="M258.652 398.724L250.929 398.744C250.729 398.741 250.577 398.343 250.502 399.42C250.325 401.979 249.886 404.514 249.108 406.958L249.053 407.131C248.938 407.821 249.325 408.517 249.918 408.685C249.994 408.707 250.071 408.719 250.149 408.721C253.092 408.707 255.704 408.559 259.37 408.622C263.696 408.691 262.616 409.283 267.704 409.448C270.769 409.544 271.212 405.455 269.907 405.233C263.935 404.259 259.295 398.704 258.652 398.724Z" fill="#263238"/>
<path opacity="0.1" d="M259.23 197.867C256.419 194.549 256.302 218.112 266.897 226.577C273.404 231.776 273.521 214.738 259.23 197.867Z" fill="black"/>
<path d="M255.892 197.752C256.109 199.253 256.401 200.743 256.769 202.214C264.706 226.279 276.716 220.813 279.188 218.128C280.97 214.029 280.7 196.038 278.809 189.023L275.624 190.861C274.561 193.197 274.503 213.517 272.594 209.574C272.594 209.574 266.812 202.029 266.278 199.788C266.275 199.777 266.272 199.765 266.269 199.753C265.409 196.185 262.401 193.54 258.741 193.265C258.741 193.265 255.581 194.056 255.892 197.752Z" fill="#EEC8C0"/>
<path d="M276.734 191.154C273.586 190.389 271.785 187.071 271.785 187.071L278.082 182.673L278.808 189.024L276.734 191.154Z" fill="#EEC8C0"/>
<path d="M278.098 182.681L271.8 187.079L269.167 180.063L274.596 178.557L278.098 182.681Z" fill="#EEC8C0"/>
<path d="M263.901 179.989C264.003 180.52 264.367 180.891 264.709 180.826C265.051 180.76 265.248 180.273 265.146 179.749C265.044 179.225 264.68 178.846 264.338 178.912C263.995 178.978 263.792 179.465 263.901 179.989Z" fill="#263238"/>
<path d="M224.105 126.654H273.411C274.769 126.654 275.879 127.763 275.879 129.119L275.877 142.807C275.877 144.161 274.767 145.269 273.411 145.269H265.973L265.679 150.352C264.892 151.649 263.051 151.72 262.298 150.484L259.124 145.27H224.098C222.742 145.27 221.633 144.162 221.633 142.808L221.635 129.119C221.637 127.764 222.748 126.654 224.105 126.654Z" fill="#407BFF"/>
<g opacity="0.7">
<path d="M224.105 126.654H273.411C274.769 126.654 275.879 127.763 275.879 129.119L275.877 142.807C275.877 144.161 274.767 145.269 273.411 145.269H265.973L265.679 150.352C264.892 151.649 263.051 151.72 262.298 150.484L259.124 145.27H224.098C222.742 145.27 221.633 144.162 221.633 142.808L221.635 129.119C221.637 127.764 222.748 126.654 224.105 126.654Z" fill="white"/>
</g>
<path d="M231.319 132.185L232.492 134.561L235.115 134.942L233.217 136.792L233.665 139.404L231.319 138.171L228.973 139.404L229.421 136.792L227.523 134.942L230.146 134.561L231.319 132.185Z" fill="#407BFF"/>
<path d="M240.136 132.185L241.309 134.561L243.932 134.942L242.034 136.792L242.482 139.404L240.136 138.171L237.791 139.404L238.239 136.792L236.341 134.942L238.964 134.561L240.136 132.185Z" fill="#407BFF"/>
<path d="M248.954 132.185L250.127 134.561L252.749 134.942L250.852 136.792L251.3 139.404L248.954 138.171L246.608 139.404L247.056 136.792L245.158 134.942L247.781 134.561L248.954 132.185Z" fill="#407BFF"/>
<path d="M257.771 132.185L258.944 134.561L261.567 134.942L259.669 136.792L260.117 139.404L257.771 138.171L255.426 139.404L255.874 136.792L253.976 134.942L256.598 134.561L257.771 132.185Z" fill="#263238"/>
<path d="M266.589 132.185L267.762 134.561L270.384 134.942L268.487 136.792L268.935 139.404L266.589 138.171L264.243 139.404L264.691 136.792L262.793 134.942L265.416 134.561L266.589 132.185Z" fill="#263238"/>
<path d="M286.22 410.723C284.978 410.723 283.994 410 283.7 408.872L270.911 359.735H286.996L290.101 406.718C290.234 408.74 288.312 410.723 286.22 410.723Z" fill="#263238"/>
<path d="M343.475 410.723C342.233 410.723 341.249 410 340.955 408.872L328.166 359.735H344.251L347.356 406.718C347.489 408.74 345.568 410.723 343.475 410.723Z" fill="#263238"/>
<path opacity="0.2" d="M343.475 410.723C342.233 410.723 341.249 410 340.955 408.872L328.166 359.735H344.251L347.356 406.718C347.489 408.74 345.568 410.723 343.475 410.723Z" fill="white"/>
<path d="M240.403 410.723C241.645 410.723 242.629 410 242.923 408.872L255.712 359.735H239.627L236.522 406.718C236.389 408.74 238.311 410.723 240.403 410.723Z" fill="#263238"/>
<path opacity="0.2" d="M240.403 410.723C241.645 410.723 242.629 410 242.923 408.872L255.712 359.735H239.627L236.522 406.718C236.389 408.74 238.311 410.723 240.403 410.723Z" fill="white"/>
<path d="M183.147 410.723C184.389 410.723 185.373 410 185.667 408.872L198.456 359.735H182.371L179.266 406.718C179.133 408.74 181.055 410.723 183.147 410.723Z" fill="#263238"/>
<path d="M350.692 285.406L342.856 355.907C342.335 360.856 337.433 364.684 331.489 364.858C331.349 364.871 331.201 364.871 331.053 364.871H232.237C225.289 364.871 219.827 359.935 220.434 354.199L228.262 283.698C228.799 278.626 233.926 274.734 240.073 274.734H338.882C339.037 274.734 339.193 274.734 339.349 274.747C346.078 274.96 351.283 279.8 350.692 285.406Z" fill="#407BFF"/>
<path opacity="0.5" d="M350.692 285.406L342.856 355.907C342.335 360.856 337.433 364.684 331.489 364.858C331.349 364.871 331.201 364.871 331.053 364.871H232.237C225.289 364.871 219.827 359.935 220.434 354.199L228.262 283.698C228.799 278.626 233.926 274.734 240.073 274.734H338.882C339.037 274.734 339.193 274.734 339.349 274.747C346.078 274.96 351.283 279.8 350.692 285.406Z" fill="white"/>
<path d="M356.122 285.406L348.286 355.907C347.765 360.856 342.863 364.684 336.919 364.858C330.189 364.645 324.984 359.806 325.575 354.199L333.411 283.698C333.932 278.749 338.826 274.921 344.778 274.747C351.508 274.96 356.713 279.8 356.122 285.406Z" fill="#407BFF"/>
<path opacity="0.3" d="M356.122 285.406L348.286 355.907C347.765 360.856 342.863 364.684 336.919 364.858C330.189 364.645 324.984 359.806 325.575 354.199L333.411 283.698C333.932 278.749 338.826 274.921 344.778 274.747C351.508 274.96 356.713 279.8 356.122 285.406Z" fill="white"/>
<path d="M336.325 378.759H267.524C260.615 378.759 255.013 373.158 255.013 366.248V358.217C255.013 351.307 260.614 345.706 267.524 345.706H336.325C343.235 345.706 348.836 351.307 348.836 358.217V366.248C348.836 373.158 343.235 378.759 336.325 378.759Z" fill="#407BFF"/>
<path opacity="0.3" d="M336.325 378.759H267.524C260.615 378.759 255.013 373.158 255.013 366.248V358.217C255.013 351.307 260.614 345.706 267.524 345.706H336.325C343.235 345.706 348.836 351.307 348.836 358.217V366.248C348.836 373.158 343.235 378.759 336.325 378.759Z" fill="white"/>
<path d="M292.029 378.759H184.931C178.164 378.759 172.679 373.273 172.679 366.507V357.959C172.679 351.192 178.165 345.707 184.931 345.707H292.029C298.796 345.707 304.281 351.193 304.281 357.959V366.507C304.282 373.273 298.796 378.759 292.029 378.759Z" fill="#407BFF"/>
<path opacity="0.6" d="M292.029 378.759H184.931C178.164 378.759 172.679 373.273 172.679 366.507V357.959C172.679 351.192 178.165 345.707 184.931 345.707H292.029C298.796 345.707 304.281 351.193 304.281 357.959V366.507C304.282 373.273 298.796 378.759 292.029 378.759Z" fill="white"/>
<path d="M213.733 380.1L204.895 396.899L199.465 393.156L204.894 376.44L213.733 380.1Z" fill="#7F3E3B"/>
<path d="M285.296 308.556C285.296 308.556 277.326 308.739 268.491 306.061C268.269 310.1 266.521 313.903 263.601 316.703L262.438 317.818C262.438 317.818 227.986 309.436 223.273 320.271C219.255 329.508 200.456 383.145 200.456 383.145L211.938 388.14C211.938 388.14 228.749 364.579 236.476 345.624C236.888 344.614 238.31 339.287 238.31 339.287C244.063 341.912 261.137 348.448 283.081 347.428C286.479 347.27 289.893 345.11 289.085 334.013C288.276 322.916 285.296 308.556 285.296 308.556Z" fill="#407BFF"/>
<path opacity="0.2" d="M265.104 341.041C255.466 336.558 242.199 324.532 236.048 320.039C234.28 318.748 232.661 318.058 231.242 317.713C236.672 316.639 243.588 316.831 249.536 317.368L263.561 323.865L286.078 334.385L288.735 342.453C287.683 346.754 284.956 347.337 282.519 347.451C272.349 347.924 261.405 346.54 254.318 344.747C255.443 344.874 274.411 345.37 265.104 341.041Z" fill="black"/>
<path d="M197.025 349.115L184.651 361.177L180.01 357.37L189.618 343.461L197.025 349.115Z" fill="#7F3E3B"/>
<path d="M180.909 355.709L186.307 359.997C186.541 360.183 186.615 360.506 186.485 360.774L183.599 366.712C183.347 367.241 182.714 367.465 182.186 367.213C182.118 367.181 182.054 367.141 181.994 367.095C179.788 365.281 177.897 363.579 175.109 361.372C171.822 358.764 172.344 359.819 168.437 356.807C166.085 354.99 167.759 352.006 168.85 352.659C173.819 355.677 176.177 355.322 179.204 355.089C179.829 355.081 180.436 355.301 180.909 355.709Z" fill="#407BFF"/>
<path d="M178.715 355.445C178.763 355.465 178.819 355.455 178.857 355.419C178.899 355.378 178.912 355.316 178.889 355.263C178.779 354.995 177.731 352.628 176.936 352.48C176.784 352.454 176.627 352.507 176.521 352.621C176.336 352.799 176.25 353.053 176.289 353.302C176.412 354.139 177.846 355.006 178.69 355.443L178.715 355.445ZM176.943 352.761C177.376 352.919 178.041 354.088 178.471 355.003C177.341 354.367 176.64 353.722 176.57 353.254C176.539 353.089 176.597 352.919 176.725 352.806C176.763 352.76 176.825 352.737 176.883 352.749L176.943 352.761Z" fill="#407BFF"/>
<path d="M178.715 355.445L178.742 355.466C178.793 355.471 178.843 355.446 178.871 355.403C178.91 355.356 179.804 354.045 179.63 353.112C179.583 352.839 179.425 352.6 179.192 352.448C178.875 352.242 178.664 352.32 178.544 352.425C178.02 352.88 178.295 354.71 178.628 355.394C178.648 355.422 178.68 355.441 178.715 355.445ZM178.911 352.601L179.022 352.688C179.195 352.797 179.312 352.974 179.345 353.175C179.352 353.838 179.153 354.491 178.775 355.044C178.499 354.258 178.411 352.91 178.717 352.639C178.739 352.622 178.788 352.573 178.899 352.617L178.911 352.601Z" fill="#407BFF"/>
<path d="M197.596 392.345C197.641 392.315 197.664 392.26 197.655 392.207C197.644 392.147 197.597 392.101 197.538 392.09C197.243 392.033 194.594 391.587 194.012 392.191C193.902 392.308 193.859 392.474 193.896 392.631C193.944 392.893 194.115 393.113 194.354 393.221C195.15 393.593 196.72 392.846 197.58 392.366L197.596 392.345ZM194.258 392.346C194.642 392.061 196.035 392.153 197.073 392.304C195.876 392.919 194.917 393.158 194.472 392.95C194.312 392.883 194.198 392.735 194.173 392.56C194.155 392.5 194.171 392.435 194.214 392.39L194.258 392.346Z" fill="#407BFF"/>
<path d="M197.596 392.345L197.629 392.334C197.662 392.292 197.67 392.235 197.648 392.187C197.629 392.127 197.006 390.603 196.097 390.22C195.834 390.105 195.536 390.105 195.271 390.22C194.912 390.377 194.859 390.604 194.881 390.768C194.976 391.482 196.718 392.289 197.5 392.392C197.538 392.39 197.572 392.373 197.596 392.345ZM195.244 390.55L195.383 390.504C195.576 390.417 195.796 390.416 195.989 390.503C196.568 390.876 197.019 391.421 197.282 392.065C196.444 391.855 195.225 391.161 195.166 390.741C195.164 390.712 195.149 390.642 195.251 390.571L195.244 390.55Z" fill="#407BFF"/>
<path d="M276.743 307.695C291.704 310.441 305.466 308.272 305.466 308.272C305.466 308.272 315.366 346.346 287.093 346.308C276.639 346.294 272.371 341.872 265.652 337.764C250.351 328.411 237.829 314.743 231.839 315.502C223.219 316.595 227.906 326.887 192.349 354.794L185.19 348.273C185.19 348.273 212.067 289.19 229.743 289.19C245.069 289.19 269.197 312.79 272.434 312.87C275.67 312.95 276.743 307.695 276.743 307.695Z" fill="#407BFF"/>
<path opacity="0.2" d="M227.01 317.627L227.021 317.632C224.854 318.562 223.216 319.861 222.434 321.659C221.961 322.745 221.528 324.498 221.132 326.744C220.113 328.159 218.918 329.73 217.498 331.46C218.614 319.95 227.01 317.627 227.01 317.627Z" fill="black"/>
<path d="M199.945 392.251L206.472 395.177C206.755 395.304 206.912 395.609 206.85 395.913L205.473 402.623C205.355 403.219 204.777 403.607 204.181 403.489C204.105 403.474 204.03 403.451 203.958 403.42C201.275 402.162 198.936 400.937 195.567 399.434C191.593 397.656 192.389 398.583 187.687 396.557C184.856 395.334 185.773 391.904 187.037 392.281C192.807 394.039 195.087 393.077 198.07 392.066C198.697 391.896 199.364 391.961 199.945 392.251Z" fill="#407BFF"/>
<path d="M246.592 262.819C246.592 262.819 244.43 258.371 245.737 257.434C247.045 256.497 246.807 257.682 246.807 257.682L249.542 263.183L246.592 262.819Z" fill="#7F3E3B"/>
<path d="M243.129 267.616C241.908 267.44 241.782 266.515 241.149 265.456C241.149 265.456 239.29 261.202 240.765 260.574C240.765 260.574 242.953 260.312 245.405 260.409C248.171 260.518 249.506 262.704 249.959 264.265C251.311 268.933 243.129 267.616 243.129 267.616Z" fill="#7F3E3B"/>
<path d="M244.921 267.206L250.895 276.816L256.862 275.743L249.714 266.324L244.921 267.206Z" fill="#7F3E3B"/>
<path d="M275.78 261.021C275.78 261.021 268.683 260.669 265.941 274.529C263.94 284.646 263.606 283.534 263.606 283.534L252.275 267.914L245.763 270.527C245.763 270.527 258.937 296.875 265.774 294.707C265.774 294.707 269.276 294.54 271.944 288.704C274.613 282.866 275.78 261.021 275.78 261.021Z" fill="#407BFF"/>
<path d="M275.78 261.021C275.78 261.021 268.683 260.669 265.941 274.529C263.94 284.646 263.606 283.534 263.606 283.534L252.275 267.914L245.763 270.527C245.763 270.527 258.937 296.875 265.774 294.707C265.774 294.707 269.276 294.54 271.944 288.704C274.613 282.866 275.78 261.021 275.78 261.021Z" fill="#263238"/>
<path d="M269.066 271.228C268.987 274.495 263.331 281.677 269.381 286.475C268.013 289.046 265.788 306.959 267.971 310.337C267.971 310.337 290.379 313.664 306.25 312.66C307.357 306.204 304.617 292.771 310.431 272.07C311.779 267.271 308.673 262.362 303.758 261.526C302.445 261.303 301.052 261.096 299.622 260.93C294.065 260.282 289.509 259.793 284.578 259.906C282.944 259.944 281.251 260.035 279.632 260.151C273.791 260.57 269.209 265.373 269.066 271.228Z" fill="#263238"/>
<path opacity="0.2" d="M297.785 282.827C299.585 273.32 303.107 265.311 303.107 265.311L303.531 269.128L304.786 270.728C302.697 277.051 313.443 287.574 301.318 302.225C300.727 302.939 299.745 303.175 298.889 302.819C293.796 300.702 288.144 294.113 288.144 294.113L290.805 287.309C294.4 289.002 296.81 287.975 297.785 282.827Z" fill="black"/>
<path d="M272.679 284.678L277.135 284.758C278.052 284.775 278.65 284.042 278.472 283.121L276.205 271.431C276.027 270.511 275.139 269.751 274.222 269.735L269.766 269.655C268.849 269.638 268.251 270.371 268.429 271.292L270.696 282.982C270.874 283.902 271.762 284.662 272.679 284.678Z" fill="#263238"/>
<path opacity="0.3" d="M272.679 284.678L277.135 284.758C278.052 284.775 278.65 284.042 278.472 283.121L276.205 271.431C276.027 270.511 275.139 269.751 274.222 269.735L269.766 269.655C268.849 269.638 268.251 270.371 268.429 271.292L270.696 282.982C270.874 283.902 271.762 284.662 272.679 284.678Z" fill="white"/>
<path d="M272.024 284.666L276.48 284.746C277.397 284.762 277.995 284.03 277.817 283.109L275.55 271.419C275.372 270.499 274.484 269.739 273.567 269.723L269.111 269.643C268.194 269.627 267.596 270.359 267.774 271.28L270.041 282.97C270.22 283.891 271.108 284.65 272.024 284.666Z" fill="#263238"/>
<path opacity="0.7" d="M272.024 284.666L276.48 284.746C277.397 284.762 277.995 284.03 277.817 283.109L275.55 271.419C275.372 270.499 274.484 269.739 273.567 269.723L269.111 269.643C268.194 269.627 267.596 270.359 267.774 271.28L270.041 282.97C270.22 283.891 271.108 284.65 272.024 284.666Z" fill="white"/>
<path d="M274.001 273.177L273.568 273.169C272.953 273.158 272.357 272.648 272.237 272.031L272.153 271.596C272.033 270.979 272.435 270.487 273.05 270.498L273.483 270.506C274.098 270.517 274.694 271.027 274.814 271.644L274.898 272.079C275.018 272.696 274.616 273.188 274.001 273.177Z" fill="#263238"/>
<path d="M272.965 271.162C273.015 271.418 273.262 271.629 273.517 271.634C273.772 271.639 273.939 271.435 273.889 271.179C273.839 270.923 273.592 270.712 273.338 270.707C273.082 270.702 272.915 270.906 272.965 271.162Z" fill="#263238"/>
<path d="M273.224 272.497C273.274 272.753 273.521 272.964 273.776 272.969C274.031 272.974 274.197 272.77 274.148 272.514C274.098 272.258 273.851 272.047 273.596 272.042C273.341 272.037 273.174 272.241 273.224 272.497Z" fill="#263238"/>
<path d="M278.175 283.991L285.022 290.764L288.033 285.977L280.847 280.578L278.175 283.991Z" fill="#7F3E3B"/>
<path d="M310.808 276.752C311.537 272.802 311.642 264.745 307.473 263.244C302.597 261.489 301.294 268.853 300.247 275.502C299.199 282.152 297.134 290.426 295.541 289.617C292.224 287.932 286.409 284.1 286.409 284.1L282.902 289.534C282.902 289.534 295.145 302.577 300.708 299.528C306.973 296.096 309.884 281.762 310.808 276.752Z" fill="#263238"/>
<path d="M295.904 250.012C295.904 250.012 294.674 255.406 296.008 260.576C296.008 260.576 282.584 269.164 282.584 260.326C282.584 260.326 286.753 260.826 287.106 255.478C287.307 252.437 290.475 249.361 295.904 250.012Z" fill="#7F3E3B"/>
<path opacity="0.2" d="M287.106 255.479C287.47 252.678 290.058 249.819 294.756 249.934L295.069 250.225L295.398 250.835C295.398 250.835 292.37 258.536 286.593 257.608C286.796 257.087 286.985 256.41 287.106 255.479Z" fill="black"/>
<path d="M298.974 239.508C297.931 246.803 297.65 249.913 293.646 253.375C287.622 258.587 278.893 255.716 277.729 248.257C276.683 241.544 278.559 230.75 285.964 228.408C291.247 226.708 296.908 229.613 298.608 234.896C299.087 236.384 299.212 237.963 298.974 239.508Z" fill="#7F3E3B"/>
<path d="M282.73 243.524C282.091 244.844 281.272 246.069 280.298 247.166C280.875 247.658 281.641 247.869 282.389 247.743L282.73 243.524Z" fill="#630F0F"/>
<path d="M289.24 239.83C289.291 239.822 289.339 239.803 289.38 239.773C289.508 239.675 289.532 239.492 289.434 239.363C289.433 239.361 289.432 239.36 289.43 239.358C288.774 238.46 287.721 237.937 286.609 237.958C286.45 237.976 286.333 238.115 286.343 238.274C286.356 238.432 286.493 238.55 286.651 238.541C287.57 238.539 288.434 238.977 288.974 239.72C289.038 239.802 289.139 239.843 289.24 239.83Z" fill="#263238"/>
<path d="M278.42 238.474C278.471 238.466 278.519 238.447 278.56 238.417C279.287 237.863 280.236 237.691 281.111 237.954C281.261 238.014 281.431 237.941 281.491 237.792C281.491 237.792 281.492 237.79 281.492 237.788C281.546 237.635 281.469 237.467 281.318 237.408C280.257 237.075 279.1 237.274 278.212 237.943C278.078 238.032 278.041 238.214 278.131 238.348C278.195 238.442 278.307 238.491 278.42 238.474Z" fill="#263238"/>
<path d="M287.023 242.877C286.976 243.47 286.621 243.927 286.226 243.899C285.831 243.871 285.561 243.363 285.614 242.761C285.668 242.159 286.016 241.711 286.403 241.74C286.791 241.769 287.069 242.276 287.023 242.877Z" fill="#263238"/>
<path d="M280.275 242.335C280.229 242.928 279.873 243.385 279.486 243.356C279.099 243.327 278.821 242.82 278.866 242.219C278.911 241.618 279.268 241.169 279.655 241.198C280.043 241.227 280.329 241.733 280.275 242.335Z" fill="#263238"/>
<path d="M279.824 241.244L278.425 240.719C278.425 240.719 279.074 241.893 279.824 241.244Z" fill="#263238"/>
<path d="M286.572 241.786L285.173 241.26C285.173 241.26 285.822 242.435 286.572 241.786Z" fill="#263238"/>
<path d="M286.18 248.85C286.342 248.672 286.488 248.48 286.617 248.277C286.662 248.214 286.647 248.126 286.584 248.08L286.58 248.077C286.511 248.038 286.423 248.06 286.381 248.127C285.728 249.17 284.619 249.842 283.393 249.937C283.314 249.937 283.25 250.001 283.249 250.08C283.249 250.159 283.313 250.223 283.392 250.223C284.469 250.161 285.474 249.665 286.18 248.85Z" fill="#263238"/>
<path d="M292.366 226.793C292.366 226.793 303.846 224.556 306.514 243.233C307.843 252.533 295.174 257.741 295.174 257.741V255.801C295.174 253.01 295.741 250.248 296.84 247.683L297.675 245.734L292.164 238.014C292.164 238.014 288.866 236.988 288.407 233.912C288.407 233.912 287.629 235.001 288.866 236.988C288.866 236.988 280.449 237.317 280.911 232.963C280.911 232.963 280.24 234.197 280.856 235.311C280.856 235.311 278.236 235.264 278.563 232.969C278.891 230.674 280.897 221.123 292.366 226.793Z" fill="#263238"/>
<path d="M300.241 245.445C299.725 246.773 298.702 247.842 297.397 248.415C295.662 249.161 294.545 247.672 294.815 245.902C295.058 244.315 296.255 242.006 298.1 242.008C299.443 242.05 300.498 243.173 300.456 244.516C300.447 244.836 300.373 245.152 300.241 245.445Z" fill="#7F3E3B"/>
<path d="M272.326 281.56L273.329 283.2C273.706 283.817 274.358 284.213 275.079 284.264L278.449 284.503C279.796 284.598 281.106 284.036 281.964 282.992L282.495 282.346C281.018 279.512 277.334 277.538 277.334 277.538L276.346 276.859C275.466 276.255 274.329 276.437 273.733 277.28L272.362 279.22C271.889 279.89 271.874 280.821 272.326 281.56Z" fill="#7F3E3B"/>
<path d="M240.38 316.692H289.686C291.044 316.692 292.154 315.583 292.154 314.227L292.152 300.539C292.152 299.185 291.042 298.077 289.686 298.077H282.248L281.954 292.994C281.167 291.698 279.326 291.626 278.573 292.862L275.399 298.076H240.373C239.017 298.076 237.908 299.184 237.908 300.538L237.91 314.227C237.911 315.582 239.023 316.692 240.38 316.692Z" fill="#407BFF"/>
<g opacity="0.7">
<path d="M240.38 316.692H289.686C291.044 316.692 292.154 315.583 292.154 314.227L292.152 300.539C292.152 299.185 291.042 298.077 289.686 298.077H282.248L281.954 292.994C281.167 291.698 279.326 291.626 278.573 292.862L275.399 298.076H240.373C239.017 298.076 237.908 299.184 237.908 300.538L237.91 314.227C237.911 315.582 239.023 316.692 240.38 316.692Z" fill="white"/>
</g>
<path d="M247.863 303.124L249.036 305.501L251.659 305.882L249.761 307.732L250.209 310.344L247.863 309.111L245.518 310.344L245.966 307.732L244.068 305.882L246.691 305.501L247.863 303.124Z" fill="#407BFF"/>
<path d="M256.681 303.124L257.854 305.501L260.476 305.882L258.579 307.732L259.027 310.344L256.681 309.111L254.335 310.344L254.783 307.732L252.885 305.882L255.508 305.501L256.681 303.124Z" fill="#407BFF"/>
<path d="M265.498 303.124L266.671 305.501L269.294 305.882L267.396 307.732L267.844 310.344L265.498 309.111L263.152 310.344L263.6 307.732L261.703 305.882L264.325 305.501L265.498 303.124Z" fill="#407BFF"/>
<path d="M274.316 303.124L275.489 305.501L278.111 305.882L276.214 307.732L276.661 310.344L274.316 309.111L271.97 310.344L272.418 307.732L270.52 305.882L273.143 305.501L274.316 303.124Z" fill="#407BFF"/>
<path d="M283.133 303.124L284.306 305.501L286.929 305.882L285.031 307.732L285.479 310.344L283.133 309.111L280.787 310.344L281.235 307.732L279.338 305.882L281.96 305.501L283.133 303.124Z" fill="#263238"/>
<path d="M392.34 373.222L395.591 401.279L403.063 401.304L403.71 371.89L392.34 373.222Z" fill="#FFB573"/>
<path d="M405.927 399.436C411.288 402.494 411.886 402.558 417.789 403.77C419.086 404.035 418.599 407.118 415.589 407.145C410.616 407.229 411.039 407.052 406.788 407.097C403.166 407.137 397.922 407.34 395.041 407.418C395.009 407.418 394.976 407.417 394.944 407.414C394.282 407.363 393.771 406.784 393.801 406.119L394.339 399.484C394.366 399.189 394.607 398.967 394.901 398.966L404.075 398.895C404.728 398.904 405.368 399.09 405.927 399.436Z" fill="#263238"/>
<path d="M405.449 399.555C406.643 399.787 408.77 400.059 409.56 399.317C409.798 399.099 409.914 398.775 409.87 398.45C409.854 398.252 409.739 398.074 409.565 397.979C408.651 397.495 405.717 399.036 405.393 399.216C405.328 399.251 405.292 399.323 405.301 399.398C405.31 399.465 405.358 399.52 405.423 399.538L405.449 399.555ZM409.405 398.292C409.473 398.327 409.516 398.398 409.518 398.475C409.556 398.69 409.48 398.907 409.317 399.047C408.875 399.461 407.659 399.55 406.02 399.289C407.179 398.713 408.777 398.07 409.336 398.256L409.405 398.292Z" fill="#407BFF"/>
<path d="M405.552 399.556C406.429 399.135 408.161 397.518 407.998 396.645C407.961 396.444 407.813 396.199 407.331 396.152C406.977 396.119 406.628 396.234 406.363 396.47C405.445 397.267 405.3 399.294 405.301 399.372C405.295 399.437 405.325 399.501 405.38 399.537H405.423C405.462 399.561 405.509 399.568 405.552 399.556ZM407.49 396.555C407.637 396.599 407.646 396.687 407.655 396.722C407.746 397.237 406.585 398.519 405.683 399.088C405.744 398.233 406.064 397.42 406.598 396.76C406.791 396.584 407.048 396.5 407.309 396.528L407.489 396.529L407.49 396.555Z" fill="#407BFF"/>
<path d="M379.861 381.427L390.69 404.56H399.057L390.197 376.505L379.861 381.427Z" fill="#FFB573"/>
<path d="M399.952 402.872C405.313 405.93 405.911 405.993 411.814 407.206C413.111 407.471 412.624 410.554 409.614 410.581C404.641 410.665 405.064 410.488 400.813 410.533C397.191 410.573 391.947 410.776 389.066 410.854C389.034 410.854 389.001 410.853 388.969 410.85C388.307 410.799 387.796 410.22 387.826 409.555L388.364 402.92C388.391 402.625 388.632 402.403 388.926 402.402L398.1 402.331C398.752 402.339 399.392 402.525 399.952 402.872Z" fill="#263238"/>
<path d="M399.473 402.991C400.667 403.223 402.794 403.495 403.584 402.753C403.822 402.535 403.938 402.211 403.894 401.886C403.878 401.688 403.763 401.51 403.589 401.415C402.675 400.931 399.741 402.472 399.417 402.652C399.352 402.687 399.316 402.759 399.325 402.834C399.334 402.901 399.382 402.956 399.447 402.974L399.473 402.991ZM403.429 401.727C403.497 401.762 403.54 401.833 403.542 401.91C403.58 402.125 403.504 402.342 403.341 402.482C402.899 402.896 401.683 402.985 400.044 402.724C401.203 402.148 402.801 401.505 403.36 401.691L403.429 401.727Z" fill="#407BFF"/>
<path d="M399.576 402.991C400.453 402.57 402.185 400.953 402.022 400.08C401.985 399.879 401.837 399.634 401.355 399.587C401.001 399.554 400.652 399.669 400.387 399.905C399.469 400.702 399.324 402.728 399.325 402.807C399.319 402.872 399.349 402.936 399.404 402.972H399.447C399.486 402.997 399.533 403.003 399.576 402.991ZM401.514 399.991C401.661 400.035 401.67 400.123 401.679 400.158C401.77 400.673 400.609 401.955 399.707 402.524C399.768 401.669 400.088 400.856 400.622 400.196C400.815 400.02 401.072 399.936 401.333 399.964L401.513 399.965L401.514 399.991Z" fill="#407BFF"/>
<path d="M369.703 215.794C371.15 215.853 372.338 214.66 372.273 213.21L371.692 185.647C371.615 183.907 371.261 181.278 371.261 181.278C375.269 181.933 382.245 183.902 384.197 191.577C386.232 199.58 385.744 215.261 384.911 222.801C384.51 226.431 381.629 231.1 375.291 229.806L369.703 215.794Z" fill="#407BFF"/>
<path d="M378.939 189.682C376.72 209.222 372.2 220.526 372.663 236.207C372.663 236.207 337.011 235.621 335.803 235.589C336.045 206.725 331.942 212.051 331.507 196.354C331.448 190.331 331.609 182.777 335.07 182.27L355.97 178.12L372.993 181.52C376.796 182.28 379.381 185.829 378.939 189.682Z" fill="#407BFF"/>
<path opacity="0.1" d="M378.939 189.682C376.72 209.222 372.2 220.526 372.663 236.207C372.663 236.207 337.011 235.621 335.803 235.589C336.045 206.725 331.942 212.051 331.507 196.354C331.448 190.331 331.609 182.777 335.07 182.27L355.97 178.12L372.993 181.52C376.796 182.28 379.381 185.829 378.939 189.682Z" fill="black"/>
<path d="M360.895 190.573C354.052 189.975 346.614 184.015 345.887 180.621C348.27 180.279 348.928 178.626 349.394 175.762C349.664 174.079 349.706 172.184 349.651 170.331C349.585 167.601 349.305 164.954 349.217 163.186L360.92 170.171C360.845 170.501 360.77 170.859 360.703 171.218C360.394 172.927 360.27 174.923 360.652 176.717C361.155 179.108 362.545 181.145 365.566 181.714C367.206 183.879 366.427 187.995 360.895 190.573Z" fill="#FFB573"/>
<path d="M360.913 191.04C356.395 189.651 351.124 188.629 346.42 189.016C346.975 187.887 347.549 186.526 348.104 185.398C346.361 185.398 344.684 185.245 342.942 185.245C343.314 183.027 343.704 180.755 344.807 178.805C345.91 176.855 347.379 175.212 349.589 175.238C349.292 176.01 348.525 178.858 349.297 180.387C350.069 181.916 351.406 183.053 352.708 184.148C355.483 186.479 358.139 188.708 360.913 191.04Z" fill="#407BFF"/>
<g opacity="0.5">
<path d="M360.913 191.04C356.395 189.651 351.124 188.629 346.42 189.016C346.975 187.887 347.549 186.526 348.104 185.398C346.361 185.398 344.684 185.245 342.942 185.245C343.314 183.027 343.704 180.755 344.807 178.805C345.91 176.855 347.379 175.212 349.589 175.238C349.292 176.01 348.525 178.858 349.297 180.387C350.069 181.916 351.406 183.053 352.708 184.148C355.483 186.479 358.139 188.708 360.913 191.04Z" fill="white"/>
</g>
<path d="M360.674 176.305C360.629 177.324 361.128 178.291 361.738 179.109C362.348 179.927 363.08 180.653 363.619 181.519C364.574 183.055 364.849 184.998 364.357 186.738C363.865 188.478 362.614 189.99 360.996 190.799C360.889 190.852 360.895 190.978 360.929 191.092C362.992 189.718 365.154 188.491 367.392 187.426C368.048 187.113 368.621 186.763 369.254 186.406C368.767 185.047 367.965 183.776 366.674 183.131C368.3 182.959 369.887 182.554 371.513 182.382C369.287 180.861 367.182 179.13 364.943 177.629C363.771 176.843 362.035 175.934 360.674 176.305Z" fill="#407BFF"/>
<path opacity="0.5" d="M360.674 176.305C360.629 177.324 361.128 178.291 361.738 179.109C362.348 179.927 363.08 180.653 363.619 181.519C364.574 183.055 364.849 184.998 364.357 186.738C363.865 188.478 362.614 189.99 360.996 190.799C360.889 190.852 360.895 190.978 360.929 191.092C362.992 189.718 365.154 188.491 367.392 187.426C368.048 187.113 368.621 186.763 369.254 186.406C368.767 185.047 367.965 183.776 366.674 183.131C368.3 182.959 369.887 182.554 371.513 182.382C369.287 180.861 367.182 179.13 364.943 177.629C363.771 176.843 362.035 175.934 360.674 176.305Z" fill="white"/>
<path opacity="0.2" d="M360.652 176.717C355.669 175.568 352.315 171.711 350.376 169.607L360.703 171.218C360.393 172.927 360.269 174.923 360.652 176.717Z" fill="black"/>
<path d="M367.185 166.622C365.212 173.516 356.449 176.399 351.391 170.829C348.47 167.621 348.297 164.114 348.238 158.669C348.225 157.842 348.217 156.975 348.202 156.049C348.17 154.609 348.457 153.181 349.042 151.871C349.287 151.312 349.584 150.794 349.926 150.315C352.509 146.577 357.458 145.094 361.752 147.023C368.478 150.042 368.967 160.418 367.185 166.622Z" fill="#FFB573"/>
<path d="M360.526 157.257C360.896 157.269 361.174 157.746 361.15 158.312C361.126 158.878 360.855 159.334 360.437 159.315C360.019 159.296 359.74 158.827 359.764 158.253C359.8 157.656 360.156 157.245 360.526 157.257Z" fill="#263238"/>
<path d="M364.382 164.56C363.491 164.588 362.6 164.616 361.709 164.644C361.484 165.171 361.22 165.65 360.995 166.178C362.557 166.849 364.32 167.046 365.979 166.679C365.906 165.889 365.717 165.235 365.505 164.471C365.177 164.496 364.71 164.55 364.382 164.56Z" fill="#263238"/>
<path d="M366.9 157.718C367.27 157.73 367.549 158.199 367.525 158.765C367.502 159.331 367.189 159.781 366.812 159.768C366.434 159.755 366.155 159.286 366.179 158.72C366.211 158.155 366.531 157.706 366.9 157.718Z" fill="#263238"/>
<path d="M364.292 164.502C365.248 164.676 366.232 164.416 366.976 163.791C365.765 162.384 364.757 160.814 363.982 159.128L364.292 164.502Z" fill="#ED893E"/>
<path d="M363.062 167.44C363.027 167.44 362.992 167.433 362.958 167.418L362.678 167.29C361.612 166.802 360.376 166.777 359.29 167.217C359.162 167.268 359.016 167.207 358.965 167.079C358.913 166.951 358.975 166.806 359.103 166.754C360.315 166.261 361.695 166.291 362.887 166.835L363.167 166.963C363.292 167.021 363.348 167.169 363.291 167.294C363.248 167.386 363.157 167.44 363.062 167.44Z" fill="#263238"/>
<path d="M359.15 156.072C359.675 155.396 360.49 155.011 361.345 155.034C361.379 155.044 361.413 155.05 361.448 155.049C361.633 155.047 361.781 154.895 361.778 154.71C361.775 154.525 361.624 154.377 361.439 154.38C360.368 154.326 359.336 154.792 358.669 155.632C358.552 155.773 358.57 155.981 358.709 156.1C358.752 156.139 358.806 156.164 358.864 156.172C358.969 156.185 359.075 156.148 359.15 156.072Z" fill="#263238"/>
<path d="M368.301 156.813L368.305 156.811C368.464 156.717 368.518 156.512 368.425 156.353C367.911 155.412 366.969 154.783 365.903 154.67C365.9 154.67 365.896 154.67 365.892 154.669C365.712 154.662 365.56 154.802 365.553 154.982C365.552 154.991 365.552 155 365.551 155.009C365.549 155.185 365.689 155.329 365.865 155.332C366.706 155.439 367.443 155.945 367.848 156.689C367.901 156.787 368.001 156.851 368.112 156.859C368.178 156.861 368.243 156.845 368.301 156.813Z" fill="#263238"/>
<path d="M363.626 142.926C365.147 142.846 366.597 143.503 367.538 144.7C367.682 144.884 366.638 149.937 365.541 150.049C362.712 150.338 360.712 149.91 358.012 149.019C357.565 148.871 357.115 148.706 356.644 148.69C356.174 148.674 353.82 150.86 353.373 151.847C352.925 152.833 352.712 153.908 352.537 154.977C352.483 155.308 352.429 155.648 352.264 155.939C352.099 156.231 352.011 156.497 351.677 156.482C351.23 157.421 351.178 158.51 351.344 159.536C351.509 160.563 351.879 161.544 352.246 162.517C352.511 163.219 352.776 163.921 353.041 164.622C352.693 164.635 348.526 162.882 347.03 162.389C345.088 159.681 344.092 156.309 344.251 152.98C344.296 152.039 344.346 149.064 344.8 148.238C345.254 147.412 346.069 146.738 347.008 146.662C346.417 144.248 348.44 143.674 350.753 142.762C353.065 141.851 355.664 142.146 358.106 142.61C359.869 142.947 361.774 143.023 363.626 142.926Z" fill="#263238"/>
<path d="M347.738 158.199C350.002 158.47 351.108 161.465 351.157 163.445C351.229 165.65 349.591 167.299 347.582 166.131C346.07 165.241 344.98 163.78 344.557 162.078C344.054 159.985 345.474 157.928 347.738 158.199Z" fill="#FFB573"/>
<path d="M340.5 189.078C340.561 180.465 328.897 180.449 327.471 188.43C327.457 188.507 327.444 188.585 327.432 188.663C326.14 196.818 328.868 216.526 330.39 223.958C331.122 227.535 334.604 229.847 338.182 229.153L361.439 224.645L360.21 213.537L344.89 215.585C343.454 215.777 342.162 214.697 342.093 213.248L340.5 189.078Z" fill="#407BFF"/>
<path d="M358.128 222.476L364.056 220.956C364.593 220.818 365.155 220.81 365.696 220.933L371.116 222.161C372.299 222.429 373.536 222.065 374.385 221.198L377.124 218.404C378.514 216.986 378.451 214.695 376.984 213.356L376.098 212.547C374.912 211.464 373.141 211.328 371.804 212.218C371.148 212.655 370.363 212.857 369.578 212.792L369.255 212.765C367.761 212.641 366.354 213.483 365.756 214.86L365.413 215.651L357.027 216.672L358.128 222.476Z" fill="#FFB573"/>
<path d="M355.931 214.931L349.866 214.118C349.316 214.044 348.792 213.841 348.337 213.525L343.773 210.354C342.777 209.662 341.494 209.536 340.381 210.021L336.794 211.585C334.974 212.378 334.174 214.526 335.031 216.317L335.549 217.399C336.243 218.848 337.833 219.638 339.407 219.314C340.179 219.155 340.982 219.262 341.686 219.617L341.976 219.763C343.314 220.438 344.934 220.184 346.005 219.132L346.62 218.527L354.777 220.724L355.931 214.931Z" fill="#FFB573"/>
<path d="M356.883 214.796L350.771 213.501L349.108 221.398L355.006 222.953L356.883 214.796Z" fill="#263238"/>
<g opacity="0.7">
<path d="M356.883 214.796L350.771 213.501L349.108 221.398L355.006 222.953L356.883 214.796Z" fill="white"/>
</g>
<path d="M384.144 225.386C383.165 228.904 379.532 230.968 376.01 230.028L353.122 223.917L355.119 212.921L370.26 216.028C385.183 217.948 384.144 225.386 384.144 225.386Z" fill="#407BFF"/>
<path d="M408.418 326.498L404.415 392.795L389.426 392.226C389.426 392.226 389.446 381.721 389.009 366.989C388.653 354.948 384.052 338.494 386.767 325.824C372.228 299.793 353.397 278.731 350.359 271.2C344.075 255.623 349.435 235.747 349.435 235.747L372.852 235.325C374.576 246.421 377.993 257.187 382.981 267.247L405.576 312.81C407.682 317.054 408.66 321.767 408.418 326.498Z" fill="#263238"/>
<path opacity="0.2" d="M376.813 309.535L356.564 264.851H368.781L376.813 309.535Z" fill="black"/>
<path d="M335.802 235.589C335.802 235.589 328.848 252.973 332.92 269.263C334.944 277.358 363.69 339.513 363.69 339.513C363.694 339.527 365.387 356.482 375.206 376.283L384.958 394.604L396.723 394.151L382.29 330.611L368.024 284.969C363.672 268.691 360.219 252.163 359.618 235.324L335.802 235.589Z" fill="#263238"/>
<path d="M399.95 113.525H350.644C349.286 113.525 348.176 114.634 348.176 115.99L348.178 129.678C348.178 131.032 349.288 132.14 350.644 132.14H358.082L358.376 137.223C359.163 138.52 361.004 138.591 361.757 137.355L364.931 132.14H399.957C401.313 132.14 402.422 131.032 402.422 129.678L402.42 115.989C402.419 114.635 401.308 113.525 399.95 113.525Z" fill="#407BFF"/>
<g opacity="0.7">
<path d="M399.95 113.525H350.644C349.286 113.525 348.176 114.634 348.176 115.99L348.178 129.678C348.178 131.032 349.288 132.14 350.644 132.14H358.082L358.376 137.223C359.163 138.52 361.004 138.591 361.757 137.355L364.931 132.14H399.957C401.313 132.14 402.422 131.032 402.422 129.678L402.42 115.989C402.419 114.635 401.308 113.525 399.95 113.525Z" fill="white"/>
</g>
<path d="M358.131 127.093L359.304 124.716L361.927 124.335L360.029 122.485L360.477 119.873L358.131 121.106L355.785 119.873L356.233 122.485L354.336 124.335L356.958 124.716L358.131 127.093Z" fill="#407BFF"/>
<path d="M366.948 127.093L368.121 124.716L370.744 124.335L368.846 122.485L369.294 119.873L366.948 121.106L364.603 119.873L365.051 122.485L363.153 124.335L365.776 124.716L366.948 127.093Z" fill="#407BFF"/>
<path d="M375.766 127.093L376.939 124.716L379.561 124.335L377.664 122.485L378.112 119.873L375.766 121.106L373.42 119.873L373.868 122.485L371.97 124.335L374.593 124.716L375.766 127.093Z" fill="#263238"/>
<path d="M384.583 127.093L385.756 124.716L388.379 124.335L386.481 122.485L386.929 119.873L384.583 121.106L382.238 119.873L382.686 122.485L380.788 124.335L383.41 124.716L384.583 127.093Z" fill="#263238"/>
<path d="M393.401 127.093L394.574 124.716L397.196 124.335L395.299 122.485L395.747 119.873L393.401 121.106L391.055 119.873L391.503 122.485L389.605 124.335L392.228 124.716L393.401 127.093Z" fill="#263238"/>
</svg>
